<?xml version="1.0" encoding="utf-8"?>
<!-- Generator: Adobe Illustrator 24.2.3, SVG Export Plug-In . SVG Version: 6.00 Build 0)  -->
<svg version="1.1" id="Layer_1" xmlns="http://www.w3.org/2000/svg" xmlns:xlink="http://www.w3.org/1999/xlink" x="0px" y="0px"
	 viewBox="0 0 612 214" style="enable-background:new 0 0 612 214;" xml:space="preserve">
<style type="text/css">
	.st0{fill:#008C94;}
	.st1{fill:#121226;}
	.st2{fill:#005763;}
</style>
<g>
	<rect x="492.58" y="74.74" class="st0" width="22.95" height="22.95"/>
	<polygon class="st1" points="485.63,18.8 485.63,55.13 462.38,74.73 444.37,74.73 444.37,97.68 467.31,97.68 467.31,82.5 
		488.44,64.68 531.51,64.68 531.51,18.8 	"/>
	<path class="st2" d="M473.36,53.48V32.64c0-0.75-0.61-1.35-1.35-1.35h-30.69c-0.75,0-1.35,0.61-1.35,1.35v30.69
		c0,0.75,0.61,1.35,1.35,1.35h18.76L473.36,53.48z"/>
	<g>
		<polygon class="st1" points="398.21,120.63 398.21,147.48 372.94,147.48 372.94,120.63 349.99,120.63 349.99,194.32 
			372.94,194.32 372.94,165.26 398.21,165.26 398.21,194.32 421.15,194.32 421.15,120.63 		"/>
		<rect x="132.11" y="120.63" class="st1" width="22.95" height="73.69"/>
		<polygon class="st1" points="263.85,120.63 263.85,194.32 326.78,194.32 326.78,177.16 286.1,177.16 286.1,167.04 323.91,167.04 
			323.91,148.73 286.1,148.73 286.1,137.79 326.78,137.79 326.78,120.63 		"/>
		<path class="st1" d="M515.53,162.86c0,23.37-15.42,32.63-35.81,32.63c-20.4,0-35.35-9.26-35.35-32.63v-42.21h22.95v42.21
			c0,9.05,3.94,14.63,12.75,14.63s12.52-5.58,12.52-14.63v-42.19l22.95-0.04V162.86z"/>
		<path class="st1" d="M608.17,170.53c0,15.05-10.08,23.79-30.48,23.79h-38.94v-73.69h39.17c20.17,0,28.4,6.84,28.4,19.16
			c0,8-4.29,11.58-9.74,14.42C603.88,157.06,608.17,162.21,608.17,170.53 M584.29,142.53c0-3.26-1.74-5.79-7.07-5.79H560.3v11.58
			h16.92C582.43,148.32,584.29,146,584.29,142.53 M586.14,170.95c0-4.32-2.66-7.06-8-7.06H560.3v14.32h17.73
			C583.59,178.21,586.14,175.16,586.14,170.95"/>
		<g>
			<path class="st1" d="M177.68,120.68h19.52l31.05,38.92v-38.92h20.7v73.64h-18.33l-32.24-40.39v40.39h-20.7V120.68z"/>
		</g>
		<polygon class="st1" points="101.83,121.17 81.15,121.17 81.13,121.17 80.64,121.84 59.81,149.17 46.75,132.03 38.68,121.17 
			38.47,121.17 17.79,121.17 12.62,121.17 12.62,194.96 35.57,194.96 35.57,155.21 45.38,168.09 50.3,174.55 57.29,183.71 
			59.81,186.85 62.33,183.71 69.32,174.55 74.24,168.09 84.22,154.99 84.25,194.96 107.19,194.96 107.19,121.17 		"/>
	</g>
</g>
</svg>
